<?xml version="1.0" encoding="UTF-8"?><svg xmlns="http://www.w3.org/2000/svg" xmlns:xlink="http://www.w3.org/1999/xlink" contentStyleType="text/css" height="645px" preserveAspectRatio="none" style="width:667px;height:645px;background:#FFFFFF;" version="1.1" viewBox="0 0 667 645" width="667px" zoomAndPan="magnify">
    <defs/>
    <g>
        <!--class uc1-->
        <g id="elem_uc1">
            <rect codeLine="2" fill="#F1F1F1" height="136.0469" id="uc1" rx="2.5" ry="2.5" style="stroke:#181818;stroke-width:0.5;" width="247" x="202" y="7"/>
            <ellipse cx="303.25" cy="23" fill="#ADD1B2" rx="11" ry="11" style="stroke:#181818;stroke-width:1.0;"/>
            <path d="M302.1094,23.7969 L302.1094,26.2969 L306.4375,26.2969 L306.4375,25.375 Q306.4375,24.7656 306.6719,24.5 Q306.9219,24.2344 307.2969,24.2344 Q307.6719,24.2344 307.9063,24.5 Q308.1406,24.7656 308.1406,25.375 L308.1406,28 L300.1406,28 Q299.5156,28 299.25,27.7656 Q299,27.5313 299,27.1406 Q299,26.7656 299.2656,26.5313 Q299.5313,26.2969 300.1406,26.2969 L300.4063,26.2969 L300.4063,19.6406 L300.1406,19.6406 Q299.5156,19.6406 299.25,19.4063 Q299,19.1719 299,18.7813 Q299,18.4063 299.25,18.1719 Q299.5156,17.9375 300.1406,17.9375 L307.7656,17.9375 L307.7656,20.5313 Q307.7656,21.1406 307.5313,21.4063 Q307.3125,21.6563 306.9219,21.6563 Q306.5469,21.6563 306.3125,21.4063 Q306.0781,21.1406 306.0781,20.5313 L306.0781,19.6406 L302.1094,19.6406 L302.1094,22.0938 L303.5938,22.0938 Q303.5938,21.4375 303.7188,21.25 Q303.9844,20.8438 304.4531,20.8438 Q304.8281,20.8438 305.0625,21.1094 Q305.2969,21.3594 305.2969,21.9688 L305.2969,23.9375 Q305.2969,24.4844 305.1719,24.6719 Q304.9063,25.0625 304.4531,25.0625 Q303.9844,25.0625 303.7188,24.6563 Q303.5938,24.4688 303.5938,23.7969 L302.1094,23.7969 Z " fill="#000000"/>
            <text fill="#000000" font-family="sans-serif" font-size="14" lengthAdjust="spacing" textLength="36" x="323.75" y="28.7285">Users</text>
            <line style="stroke:#181818;stroke-width:0.5;" x1="203" x2="448" y1="39" y2="39"/>
            <text fill="#000000" font-family="sans-serif" font-size="14" font-weight="bold" lengthAdjust="spacing" textLength="227" x="212" y="57.5332">id: INTEGER autoIncrement &lt;PK&gt;</text>
            <line style="stroke:#181818;stroke-width:1.0;" x1="203" x2="448" y1="64.6094" y2="64.6094"/>
            <text fill="#000000" font-family="sans-serif" font-size="14" lengthAdjust="spacing" textLength="174" x="208" y="83.1426">username: STRING Not Null</text>
            <text fill="#000000" font-family="sans-serif" font-size="14" lengthAdjust="spacing" textLength="146" x="208" y="100.752">name: STRING Not Null</text>
            <text fill="#000000" font-family="sans-serif" font-size="14" lengthAdjust="spacing" textLength="171" x="208" y="118.3613">password: STRING Not Null</text>
            <text fill="#000000" font-family="sans-serif" font-size="14" lengthAdjust="spacing" textLength="233" x="208" y="135.9707">role: ENUM(Role.ADMIN, Role.USER)</text>
        </g>
        <!--class uc2-->
        <g id="elem_uc2">
            <rect codeLine="11" fill="#F1F1F1" height="171.2656" id="uc2" rx="2.5" ry="2.5" style="stroke:#181818;stroke-width:0.5;" width="185" x="7" y="224.5"/>
            <ellipse cx="65.25" cy="240.5" fill="#ADD1B2" rx="11" ry="11" style="stroke:#181818;stroke-width:1.0;"/>
            <path d="M64.1094,241.2969 L64.1094,243.7969 L68.4375,243.7969 L68.4375,242.875 Q68.4375,242.2656 68.6719,242 Q68.9219,241.7344 69.2969,241.7344 Q69.6719,241.7344 69.9063,242 Q70.1406,242.2656 70.1406,242.875 L70.1406,245.5 L62.1406,245.5 Q61.5156,245.5 61.25,245.2656 Q61,245.0313 61,244.6406 Q61,244.2656 61.2656,244.0313 Q61.5313,243.7969 62.1406,243.7969 L62.4063,243.7969 L62.4063,237.1406 L62.1406,237.1406 Q61.5156,237.1406 61.25,236.9063 Q61,236.6719 61,236.2813 Q61,235.9063 61.25,235.6719 Q61.5156,235.4375 62.1406,235.4375 L69.7656,235.4375 L69.7656,238.0313 Q69.7656,238.6406 69.5313,238.9063 Q69.3125,239.1563 68.9219,239.1563 Q68.5469,239.1563 68.3125,238.9063 Q68.0781,238.6406 68.0781,238.0313 L68.0781,237.1406 L64.1094,237.1406 L64.1094,239.5938 L65.5938,239.5938 Q65.5938,238.9375 65.7188,238.75 Q65.9844,238.3438 66.4531,238.3438 Q66.8281,238.3438 67.0625,238.6094 Q67.2969,238.8594 67.2969,239.4688 L67.2969,241.4375 Q67.2969,241.9844 67.1719,242.1719 Q66.9063,242.5625 66.4531,242.5625 Q65.9844,242.5625 65.7188,242.1563 Q65.5938,241.9688 65.5938,241.2969 L64.1094,241.2969 Z " fill="#000000"/>
            <text fill="#000000" font-family="sans-serif" font-size="14" lengthAdjust="spacing" textLength="60" x="85.75" y="246.2285">Teachers</text>
            <line style="stroke:#181818;stroke-width:0.5;" x1="8" x2="191" y1="256.5" y2="256.5"/>
            <text fill="#000000" font-family="sans-serif" font-size="14" font-weight="bold" lengthAdjust="spacing" textLength="121" x="17" y="275.0332">id: INTEGER &lt;PK&gt;</text>
            <line style="stroke:#181818;stroke-width:1.0;" x1="8" x2="191" y1="282.1094" y2="282.1094"/>
            <text fill="#000000" font-family="sans-serif" font-size="14" lengthAdjust="spacing" textLength="153" x="13" y="300.6426">names: STRING Not Null</text>
            <text fill="#000000" font-family="sans-serif" font-size="14" lengthAdjust="spacing" textLength="173" x="13" y="318.252">surnames: STRING Not Null</text>
            <text fill="#000000" font-family="sans-serif" font-size="14" lengthAdjust="spacing" textLength="80" x="13" y="335.8613">sex: STRING</text>
            <text fill="#000000" font-family="sans-serif" font-size="14" lengthAdjust="spacing" textLength="103" x="13" y="353.4707">birthDate: DATE</text>
            <text fill="#000000" font-family="sans-serif" font-size="14" lengthAdjust="spacing" textLength="99" x="13" y="371.0801">phone: STRING</text>
            <text fill="#000000" font-family="sans-serif" font-size="14" lengthAdjust="spacing" textLength="92" x="13" y="388.6895">email: STRING</text>
        </g>
        <!--class uc3-->
        <g id="elem_uc3">
            <rect codeLine="22" fill="#F1F1F1" height="118.4375" id="uc3" rx="2.5" ry="2.5" style="stroke:#181818;stroke-width:0.5;" width="192" x="468.5" y="499"/>
            <ellipse cx="533.25" cy="515" fill="#ADD1B2" rx="11" ry="11" style="stroke:#181818;stroke-width:1.0;"/>
            <path d="M532.1094,515.7969 L532.1094,518.2969 L536.4375,518.2969 L536.4375,517.375 Q536.4375,516.7656 536.6719,516.5 Q536.9219,516.2344 537.2969,516.2344 Q537.6719,516.2344 537.9063,516.5 Q538.1406,516.7656 538.1406,517.375 L538.1406,520 L530.1406,520 Q529.5156,520 529.25,519.7656 Q529,519.5313 529,519.1406 Q529,518.7656 529.2656,518.5313 Q529.5313,518.2969 530.1406,518.2969 L530.4063,518.2969 L530.4063,511.6406 L530.1406,511.6406 Q529.5156,511.6406 529.25,511.4063 Q529,511.1719 529,510.7813 Q529,510.4063 529.25,510.1719 Q529.5156,509.9375 530.1406,509.9375 L537.7656,509.9375 L537.7656,512.5313 Q537.7656,513.1406 537.5313,513.4063 Q537.3125,513.6563 536.9219,513.6563 Q536.5469,513.6563 536.3125,513.4063 Q536.0781,513.1406 536.0781,512.5313 L536.0781,511.6406 L532.1094,511.6406 L532.1094,514.0938 L533.5938,514.0938 Q533.5938,513.4375 533.7188,513.25 Q533.9844,512.8438 534.4531,512.8438 Q534.8281,512.8438 535.0625,513.1094 Q535.2969,513.3594 535.2969,513.9688 L535.2969,515.9375 Q535.2969,516.4844 535.1719,516.6719 Q534.9063,517.0625 534.4531,517.0625 Q533.9844,517.0625 533.7188,516.6563 Q533.5938,516.4688 533.5938,515.7969 L532.1094,515.7969 Z " fill="#000000"/>
            <text fill="#000000" font-family="sans-serif" font-size="14" lengthAdjust="spacing" textLength="54" x="553.75" y="520.7285">Sections</text>
            <line style="stroke:#181818;stroke-width:0.5;" x1="469.5" x2="659.5" y1="531" y2="531"/>
            <text fill="#000000" font-family="sans-serif" font-size="14" font-weight="bold" lengthAdjust="spacing" textLength="121" x="478.5" y="549.5332">id: INTEGER &lt;PK&gt;</text>
            <line style="stroke:#181818;stroke-width:1.0;" x1="469.5" x2="659.5" y1="556.6094" y2="556.6094"/>
            <text fill="#000000" font-family="sans-serif" font-size="14" lengthAdjust="spacing" textLength="180" x="474.5" y="575.1426">description: STRING Not Null</text>
            <text fill="#000000" font-family="sans-serif" font-size="14" lengthAdjust="spacing" textLength="115" x="474.5" y="592.752">journey: INTEGER</text>
            <text fill="#000000" font-family="sans-serif" font-size="14" lengthAdjust="spacing" textLength="114" x="474.5" y="610.3613">quarter: INTEGER</text>
        </g>
        <!--class uc4-->
        <g id="elem_uc4">
            <rect codeLine="30" fill="#F1F1F1" height="214.4844" id="uc4" rx="2.5" ry="2.5" style="stroke:#181818;stroke-width:0.5;" width="194" x="454.5" y="203"/>
            <ellipse cx="519.25" cy="219" fill="#ADD1B2" rx="11" ry="11" style="stroke:#181818;stroke-width:1.0;"/>
            <path d="M518.1094,219.7969 L518.1094,222.2969 L522.4375,222.2969 L522.4375,221.375 Q522.4375,220.7656 522.6719,220.5 Q522.9219,220.2344 523.2969,220.2344 Q523.6719,220.2344 523.9063,220.5 Q524.1406,220.7656 524.1406,221.375 L524.1406,224 L516.1406,224 Q515.5156,224 515.25,223.7656 Q515,223.5313 515,223.1406 Q515,222.7656 515.2656,222.5313 Q515.5313,222.2969 516.1406,222.2969 L516.4063,222.2969 L516.4063,215.6406 L516.1406,215.6406 Q515.5156,215.6406 515.25,215.4063 Q515,215.1719 515,214.7813 Q515,214.4063 515.25,214.1719 Q515.5156,213.9375 516.1406,213.9375 L523.7656,213.9375 L523.7656,216.5313 Q523.7656,217.1406 523.5313,217.4063 Q523.3125,217.6563 522.9219,217.6563 Q522.5469,217.6563 522.3125,217.4063 Q522.0781,217.1406 522.0781,216.5313 L522.0781,215.6406 L518.1094,215.6406 L518.1094,218.0938 L519.5938,218.0938 Q519.5938,217.4375 519.7188,217.25 Q519.9844,216.8438 520.4531,216.8438 Q520.8281,216.8438 521.0625,217.1094 Q521.2969,217.3594 521.2969,217.9688 L521.2969,219.9375 Q521.2969,220.4844 521.1719,220.6719 Q520.9063,221.0625 520.4531,221.0625 Q519.9844,221.0625 519.7188,220.6563 Q519.5938,220.4688 519.5938,219.7969 L518.1094,219.7969 Z " fill="#000000"/>
            <text fill="#000000" font-family="sans-serif" font-size="14" lengthAdjust="spacing" textLength="56" x="539.75" y="224.7285">Students</text>
            <line style="stroke:#181818;stroke-width:0.5;" x1="455.5" x2="647.5" y1="235" y2="235"/>
            <text fill="#000000" font-family="sans-serif" font-size="14" font-weight="bold" lengthAdjust="spacing" textLength="121" x="464.5" y="253.5332">id: INTEGER &lt;PK&gt;</text>
            <line style="stroke:#181818;stroke-width:1.0;" x1="455.5" x2="647.5" y1="260.6094" y2="260.6094"/>
            <text fill="#000000" font-family="sans-serif" font-size="14" lengthAdjust="spacing" textLength="103" x="460.5" y="279.1426">license: STRING</text>
            <text fill="#000000" font-family="sans-serif" font-size="14" lengthAdjust="spacing" textLength="153" x="460.5" y="296.752">names: STRING Not Null</text>
            <text fill="#000000" font-family="sans-serif" font-size="14" lengthAdjust="spacing" textLength="173" x="460.5" y="314.3613">surnames: STRING Not Null</text>
            <text fill="#000000" font-family="sans-serif" font-size="14" lengthAdjust="spacing" textLength="80" x="460.5" y="331.9707">sex: STRING</text>
            <text fill="#000000" font-family="sans-serif" font-size="14" lengthAdjust="spacing" textLength="103" x="460.5" y="349.5801">birthDate: DATE</text>
            <text fill="#000000" font-family="sans-serif" font-size="14" lengthAdjust="spacing" textLength="99" x="460.5" y="367.1895">phone: STRING</text>
            <text fill="#000000" font-family="sans-serif" font-size="14" lengthAdjust="spacing" textLength="92" x="460.5" y="384.7988">email: STRING</text>
            <line style="stroke:#181818;stroke-width:1.0;" x1="455.5" x2="647.5" y1="391.875" y2="391.875"/>
            <text fill="#000000" font-family="sans-serif" font-size="14" font-weight="bold" lengthAdjust="spacing" textLength="174" x="464.5" y="410.4082">sectionID: INTEGER &lt;FK&gt;</text>
        </g>
        <!--class uc5-->
        <g id="elem_uc5">
            <rect codeLine="44" fill="#F1F1F1" height="118.4375" id="uc5" rx="2.5" ry="2.5" style="stroke:#181818;stroke-width:0.5;" width="192" x="227.5" y="251"/>
            <ellipse cx="292.25" cy="267" fill="#ADD1B2" rx="11" ry="11" style="stroke:#181818;stroke-width:1.0;"/>
            <path d="M291.1094,267.7969 L291.1094,270.2969 L295.4375,270.2969 L295.4375,269.375 Q295.4375,268.7656 295.6719,268.5 Q295.9219,268.2344 296.2969,268.2344 Q296.6719,268.2344 296.9063,268.5 Q297.1406,268.7656 297.1406,269.375 L297.1406,272 L289.1406,272 Q288.5156,272 288.25,271.7656 Q288,271.5313 288,271.1406 Q288,270.7656 288.2656,270.5313 Q288.5313,270.2969 289.1406,270.2969 L289.4063,270.2969 L289.4063,263.6406 L289.1406,263.6406 Q288.5156,263.6406 288.25,263.4063 Q288,263.1719 288,262.7813 Q288,262.4063 288.25,262.1719 Q288.5156,261.9375 289.1406,261.9375 L296.7656,261.9375 L296.7656,264.5313 Q296.7656,265.1406 296.5313,265.4063 Q296.3125,265.6563 295.9219,265.6563 Q295.5469,265.6563 295.3125,265.4063 Q295.0781,265.1406 295.0781,264.5313 L295.0781,263.6406 L291.1094,263.6406 L291.1094,266.0938 L292.5938,266.0938 Q292.5938,265.4375 292.7188,265.25 Q292.9844,264.8438 293.4531,264.8438 Q293.8281,264.8438 294.0625,265.1094 Q294.2969,265.3594 294.2969,265.9688 L294.2969,267.9375 Q294.2969,268.4844 294.1719,268.6719 Q293.9063,269.0625 293.4531,269.0625 Q292.9844,269.0625 292.7188,268.6563 Q292.5938,268.4688 292.5938,267.7969 L291.1094,267.7969 Z " fill="#000000"/>
            <text fill="#000000" font-family="sans-serif" font-size="14" lengthAdjust="spacing" textLength="54" x="312.75" y="272.7285">Subjects</text>
            <line style="stroke:#181818;stroke-width:0.5;" x1="228.5" x2="418.5" y1="283" y2="283"/>
            <text fill="#000000" font-family="sans-serif" font-size="14" font-weight="bold" lengthAdjust="spacing" textLength="121" x="237.5" y="301.5332">id: INTEGER &lt;PK&gt;</text>
            <line style="stroke:#181818;stroke-width:1.0;" x1="228.5" x2="418.5" y1="308.6094" y2="308.6094"/>
            <text fill="#000000" font-family="sans-serif" font-size="14" lengthAdjust="spacing" textLength="180" x="233.5" y="327.1426">description: STRING Not Null</text>
            <text fill="#000000" font-family="sans-serif" font-size="14" lengthAdjust="spacing" textLength="115" x="233.5" y="344.752">journey: INTEGER</text>
            <text fill="#000000" font-family="sans-serif" font-size="14" lengthAdjust="spacing" textLength="114" x="233.5" y="362.3613">quarter: INTEGER</text>
        </g>
        <!--class uc6-->
        <g id="elem_uc6">
            <rect codeLine="52" fill="#F1F1F1" height="161.6563" id="uc6" rx="2.5" ry="2.5" style="stroke:#181818;stroke-width:0.5;" width="247" x="186" y="477"/>
            <ellipse cx="268.75" cy="493" fill="#ADD1B2" rx="11" ry="11" style="stroke:#181818;stroke-width:1.0;"/>
            <path d="M267.6094,493.7969 L267.6094,496.2969 L271.9375,496.2969 L271.9375,495.375 Q271.9375,494.7656 272.1719,494.5 Q272.4219,494.2344 272.7969,494.2344 Q273.1719,494.2344 273.4063,494.5 Q273.6406,494.7656 273.6406,495.375 L273.6406,498 L265.6406,498 Q265.0156,498 264.75,497.7656 Q264.5,497.5313 264.5,497.1406 Q264.5,496.7656 264.7656,496.5313 Q265.0313,496.2969 265.6406,496.2969 L265.9063,496.2969 L265.9063,489.6406 L265.6406,489.6406 Q265.0156,489.6406 264.75,489.4063 Q264.5,489.1719 264.5,488.7813 Q264.5,488.4063 264.75,488.1719 Q265.0156,487.9375 265.6406,487.9375 L273.2656,487.9375 L273.2656,490.5313 Q273.2656,491.1406 273.0313,491.4063 Q272.8125,491.6563 272.4219,491.6563 Q272.0469,491.6563 271.8125,491.4063 Q271.5781,491.1406 271.5781,490.5313 L271.5781,489.6406 L267.6094,489.6406 L267.6094,492.0938 L269.0938,492.0938 Q269.0938,491.4375 269.2188,491.25 Q269.4844,490.8438 269.9531,490.8438 Q270.3281,490.8438 270.5625,491.1094 Q270.7969,491.3594 270.7969,491.9688 L270.7969,493.9375 Q270.7969,494.4844 270.6719,494.6719 Q270.4063,495.0625 269.9531,495.0625 Q269.4844,495.0625 269.2188,494.6563 Q269.0938,494.4688 269.0938,493.7969 L267.6094,493.7969 Z " fill="#000000"/>
            <text fill="#000000" font-family="sans-serif" font-size="14" lengthAdjust="spacing" textLength="73" x="289.25" y="498.7285">Evaluations</text>
            <line style="stroke:#181818;stroke-width:0.5;" x1="187" x2="432" y1="509" y2="509"/>
            <text fill="#000000" font-family="sans-serif" font-size="14" font-weight="bold" lengthAdjust="spacing" textLength="227" x="196" y="527.5332">id: INTEGER autoIncrement &lt;PK&gt;</text>
            <line style="stroke:#181818;stroke-width:1.0;" x1="187" x2="432" y1="534.6094" y2="534.6094"/>
            <text fill="#000000" font-family="sans-serif" font-size="14" lengthAdjust="spacing" textLength="73" x="192" y="553.1426">date: DATE</text>
            <text fill="#000000" font-family="sans-serif" font-size="14" lengthAdjust="spacing" textLength="96" x="192" y="570.752">note: INTEGER</text>
            <line style="stroke:#181818;stroke-width:1.0;" x1="187" x2="432" y1="577.8281" y2="577.8281"/>
            <text fill="#000000" font-family="sans-serif" font-size="14" font-weight="bold" lengthAdjust="spacing" textLength="176" x="196" y="596.3613">studentID: INTEGER &lt;FK&gt;</text>
            <text fill="#000000" font-family="sans-serif" font-size="14" font-weight="bold" lengthAdjust="spacing" textLength="176" x="196" y="613.9707">teacherID: INTEGER &lt;FK&gt;</text>
            <text fill="#000000" font-family="sans-serif" font-size="14" font-weight="bold" lengthAdjust="spacing" textLength="174" x="196" y="631.5801">subjectID: INTEGER &lt;FK&gt;</text>
        </g>
        <!--link uc4 to uc3-->
        <g id="link_uc4_uc3">
            <path codeLine="63" d="M557.5309,425.0989 C559.0109,453.1889 559.7188,466.5011 561.0088,490.9711 " fill="none" id="uc4-uc3" style="stroke:#181818;stroke-width:1.0;"/>
            <line style="stroke:#181818;stroke-width:1.0;" x1="553.326" x2="561.3149" y1="421.3149" y2="420.894"/>
            <line style="stroke:#181818;stroke-width:1.0;" x1="553.4838" x2="561.4728" y1="424.3108" y2="423.8898"/>
            <line style="stroke:#181818;stroke-width:1.0;" x1="557.5309" x2="557.11" y1="425.0989" y2="417.11"/>
            <line style="stroke:#181818;stroke-width:1.0;" x1="565.2139" x2="557.225" y1="494.755" y2="495.1761"/>
            <line style="stroke:#181818;stroke-width:1.0;" x1="565.0559" x2="557.067" y1="491.7591" y2="492.1803"/>
            <line style="stroke:#181818;stroke-width:1.0;" x1="561.0088" x2="561.43" y1="490.9711" y2="498.96"/>
        </g>
        <!--link uc2 to uc6-->
        <g id="link_uc2_uc6">
            <path codeLine="64" d="M176.9633,401.7452 C199.3833,428.0152 213.636,444.7054 235.796,470.6654 " fill="none" id="uc2-uc6" style="stroke:#181818;stroke-width:1.0;"/>
            <line style="stroke:#181818;stroke-width:1.0;" x1="171.3241" x2="177.4093" y1="401.2993" y2="396.1059"/>
            <line style="stroke:#181818;stroke-width:1.0;" x1="173.2716" x2="179.3568" y1="403.5812" y2="398.3878"/>
            <line style="stroke:#181818;stroke-width:1.0;" x1="176.9633" x2="171.77" y1="401.7452" y2="395.66"/>
            <line style="stroke:#181818;stroke-width:1.0;" x1="235.796" x2="245.5535" y1="470.6654" y2="472.8545"/>
            <line style="stroke:#181818;stroke-width:1.0;" x1="235.796" x2="236.4265" y1="470.6654" y2="480.6455"/>
            <line style="stroke:#181818;stroke-width:1.0;" x1="235.796" x2="240.99" y1="470.6654" y2="476.75"/>
            <line style="stroke:#181818;stroke-width:1.0;" x1="237.5399" x2="231.4552" y1="466.5472" y2="471.7412"/>
        </g>
        <!--link uc4 to uc6-->
        <g id="link_uc4_uc6">
            <path codeLine="65" d="M448.8493,415.3427 C426.8893,437.6627 415.0615,449.6981 393.9515,471.1481 " fill="none" id="uc4-uc6" style="stroke:#181818;stroke-width:1.0;"/>
            <line style="stroke:#181818;stroke-width:1.0;" x1="448.8033" x2="454.506" y1="409.686" y2="415.2967"/>
            <line style="stroke:#181818;stroke-width:1.0;" x1="446.6993" x2="452.402" y1="411.8245" y2="417.4352"/>
            <line style="stroke:#181818;stroke-width:1.0;" x1="448.8493" x2="454.46" y1="415.3427" y2="409.64"/>
            <line style="stroke:#181818;stroke-width:1.0;" x1="393.9515" x2="392.6164" y1="471.1481" y2="481.0586"/>
            <line style="stroke:#181818;stroke-width:1.0;" x1="393.9515" x2="384.0636" y1="471.1481" y2="472.6414"/>
            <line style="stroke:#181818;stroke-width:1.0;" x1="393.9515" x2="388.34" y1="471.1481" y2="476.85"/>
            <line style="stroke:#181818;stroke-width:1.0;" x1="398.2053" x2="392.5034" y1="472.5284" y2="466.9169"/>
        </g>
        <!--link uc5 to uc6-->
        <g id="link_uc5_uc6">
            <path codeLine="66" d="M319.7248,377.287 C317.8948,409.397 316.5135,433.7529 314.5235,468.8029 " fill="none" id="uc5-uc6" style="stroke:#181818;stroke-width:1.0;"/>
            <line style="stroke:#181818;stroke-width:1.0;" x1="315.9589" x2="323.9459" y1="373.0659" y2="373.5211"/>
            <line style="stroke:#181818;stroke-width:1.0;" x1="315.7882" x2="323.7752" y1="376.0611" y2="376.5163"/>
            <line style="stroke:#181818;stroke-width:1.0;" x1="319.7248" x2="320.18" y1="377.287" y2="369.3"/>
            <line style="stroke:#181818;stroke-width:1.0;" x1="314.5235" x2="320.0604" y1="468.8029" y2="477.1301"/>
            <line style="stroke:#181818;stroke-width:1.0;" x1="314.5235" x2="308.0796" y1="468.8029" y2="476.4499"/>
            <line style="stroke:#181818;stroke-width:1.0;" x1="314.5235" x2="314.07" y1="468.8029" y2="476.79"/>
            <line style="stroke:#181818;stroke-width:1.0;" x1="318.6304" x2="310.6433" y1="467.0328" y2="466.5793"/>
        </g>
        <!--link uc1 to uc4-->
        <g id="link_uc1_uc4">
            <path codeLine="67" d="M396.1391,148.8233 C415.9591,169.2633 427.0507,180.6969 448.5207,202.8369 " fill="none" id="uc1-uc4" style="stroke:#181818;stroke-width:1.0;"/>
            <line style="stroke:#181818;stroke-width:1.0;" x1="390.4829" x2="396.2262" y1="148.7362" y2="143.1671"/>
            <line style="stroke:#181818;stroke-width:1.0;" x1="392.5713" x2="398.3146" y1="150.8899" y2="145.3208"/>
            <line style="stroke:#181818;stroke-width:1.0;" x1="396.1391" x2="390.57" y1="148.8233" y2="143.08"/>
            <line style="stroke:#181818;stroke-width:1.0;" x1="454.1769" x2="448.4338" y1="202.9238" y2="208.4931"/>
            <line style="stroke:#181818;stroke-width:1.0;" x1="452.0884" x2="446.3453" y1="200.7702" y2="206.3394"/>
            <line style="stroke:#181818;stroke-width:1.0;" x1="448.5207" x2="454.09" y1="202.8369" y2="208.58"/>
        </g>
        <!--link uc1 to uc2-->
        <g id="link_uc1_uc2">
            <path codeLine="68" d="M254.8613,148.8237 C230.3513,174.1037 213.2801,191.6977 187.3901,218.3877 " fill="none" id="uc1-uc2" style="stroke:#181818;stroke-width:1.0;"/>
            <line style="stroke:#181818;stroke-width:1.0;" x1="254.7738" x2="260.5175" y1="143.1675" y2="148.7362"/>
            <line style="stroke:#181818;stroke-width:1.0;" x1="252.6856" x2="258.4292" y1="145.3213" y2="150.89"/>
            <line style="stroke:#181818;stroke-width:1.0;" x1="254.8613" x2="260.43" y1="148.8237" y2="143.08"/>
            <line style="stroke:#181818;stroke-width:1.0;" x1="187.4762" x2="181.7339" y1="224.0439" y2="218.4738"/>
            <line style="stroke:#181818;stroke-width:1.0;" x1="189.565" x2="183.8227" y1="221.8906" y2="216.3205"/>
            <line style="stroke:#181818;stroke-width:1.0;" x1="187.3901" x2="181.82" y1="218.3877" y2="224.13"/>
        </g>
        <!--SRC=[nPFVQi8m5CRl-nI7NMso3dIw2na3ePsKOHbL7o2s1wpKnENFDh6- -zBKsXIo8MEmtZGdvplX-vsS89MvtCFLKY0NLq04gBGF1m_qr-j1deqXYXVXD4o0ACaYcdBS8fNm-Fhof1L6wFlcf_GPb6nn3FD54iLJY9c4M1M5oNwVsH4XFXZFt5dE2bqNnilPTQANTvDW5iMtODRBUPZSU4VFmnF60acwDYGroi2DuZ1VsHDk1qBndxBusIHClCgvN0T4QjF1P17MX6j6iQF2BScBTiT2c6CgSqQRoxY_c213aV9yLnMxdMwO1i7z-H2p-QO8byYjJTkBL9bUDrw6S80BpHHvYbHqcV-tnQqtxLxKJOu22-AvXZXwqFAhrKOh6_xHvVn_SnbWptRuJWf5xDbu-EL3pRgjewmARHzMe-e9S3Ngf93ratCephqITHkT4WrO3LPP-dvPLlFkLQ_MX8SAiSqsuQWRzjlQOJSSU5y0]-->
    </g>
</svg>
